<svg width="200" height="200" viewBox="0 0 200 200" xmlns="http://www.w3.org/2000/svg"><rect width="100%" height="100%" fill="#1a1a1a"/><circle cx="25" cy="25" r="25" style="animation-delay: 1296ms " fill="#ff006e"/><circle cx="81" cy="6" r="6" style="animation-delay: 42ms " fill="#ff006e"/><circle cx="81" cy="18" r="6" style="animation-delay: 93ms " fill="#3a86ff"/><circle cx="56" cy="31" r="6" style="animation-delay: 654ms " fill="#ff006e"/><circle cx="68" cy="31" r="6" style="animation-delay: 1051ms " fill="#3a86ff"/><circle cx="68" cy="43" r="6" style="animation-delay: 956ms " fill="#ff006e"/><circle cx="81" cy="31" r="6" style="animation-delay: 684ms " fill="#ff006e"/><circle cx="81" cy="43" r="6" style="animation-delay: 372ms " fill="#ff006e"/><circle cx="6" cy="68" r="6" style="animation-delay: 969ms " fill="#3a86ff"/><circle cx="6" cy="81" r="6" style="animation-delay: 349ms " fill="#3a86ff"/><circle cx="6" cy="93" r="6" style="animation-delay: 1360ms " fill="#ff006e"/><circle cx="18" cy="93" r="6" style="animation-delay: 1473ms " fill="#3a86ff"/><circle cx="31" cy="81" r="6" style="animation-delay: 1269ms " fill="#3a86ff"/><circle cx="31" cy="93" r="6" style="animation-delay: 762ms " fill="#ff006e"/><circle cx="43" cy="93" r="6" style="animation-delay: 451ms " fill="#3a86ff"/><circle cx="68" cy="56" r="6" style="animation-delay: 170ms " fill="#ff006e"/><circle cx="56" cy="68" r="6" style="animation-delay: 964ms " fill="#ff006e"/><circle cx="68" cy="68" r="6" style="animation-delay: 655ms " fill="#3a86ff"/><circle cx="87" cy="62" r="12" style="animation-delay: 795ms " fill="#3a86ff"/><circle cx="68" cy="81" r="6" style="animation-delay: 1273ms " fill="#3a86ff"/><circle cx="81" cy="81" r="6" style="animation-delay: 1057ms " fill="#3a86ff"/><circle cx="93" cy="81" r="6" style="animation-delay: 370ms " fill="#ff006e"/><circle cx="81" cy="93" r="6" style="animation-delay: 685ms " fill="#3a86ff"/><circle cx="93" cy="93" r="6" style="animation-delay: 164ms " fill="#ff006e"/><circle cx="106" cy="6" r="6" style="animation-delay: 1368ms " fill="#ff006e"/><circle cx="106" cy="18" r="6" style="animation-delay: 777ms " fill="#3a86ff"/><circle cx="131" cy="6" r="6" style="animation-delay: 655ms " fill="#3a86ff"/><circle cx="143" cy="18" r="6" style="animation-delay: 661ms " fill="#3a86ff"/><circle cx="112" cy="37" r="12" style="animation-delay: 149ms " fill="#3a86ff"/><circle cx="143" cy="31" r="6" style="animation-delay: 1354ms " fill="#ff006e"/><circle cx="143" cy="43" r="6" style="animation-delay: 541ms " fill="#3a86ff"/><circle cx="168" cy="18" r="6" style="animation-delay: 371ms " fill="#3a86ff"/><circle cx="187" cy="12" r="12" style="animation-delay: 576ms " fill="#ff006e"/><circle cx="156" cy="43" r="6" style="animation-delay: 548ms " fill="#ff006e"/><circle cx="168" cy="43" r="6" style="animation-delay: 773ms " fill="#3a86ff"/><circle cx="131" cy="68" r="6" style="animation-delay: 1185ms " fill="#3a86ff"/><circle cx="143" cy="68" r="6" style="animation-delay: 1099ms " fill="#3a86ff"/><circle cx="106" cy="81" r="6" style="animation-delay: 153ms " fill="#3a86ff"/><circle cx="106" cy="93" r="6" style="animation-delay: 846ms " fill="#ff006e"/><circle cx="118" cy="93" r="6" style="animation-delay: 1165ms " fill="#3a86ff"/><circle cx="131" cy="93" r="6" style="animation-delay: 795ms " fill="#3a86ff"/><circle cx="143" cy="93" r="6" style="animation-delay: 394ms " fill="#ff006e"/><circle cx="168" cy="56" r="6" style="animation-delay: 1373ms " fill="#3a86ff"/><circle cx="156" cy="68" r="6" style="animation-delay: 280ms " fill="#ff006e"/><circle cx="168" cy="68" r="6" style="animation-delay: 399ms " fill="#3a86ff"/><circle cx="181" cy="56" r="6" style="animation-delay: 1475ms " fill="#3a86ff"/><circle cx="181" cy="68" r="6" style="animation-delay: 1356ms " fill="#ff006e"/><circle cx="162" cy="87" r="12" style="animation-delay: 1042ms " fill="#ff006e"/><circle cx="181" cy="81" r="6" style="animation-delay: 71ms " fill="#3a86ff"/><circle cx="6" cy="106" r="6" style="animation-delay: 344ms " fill="#ff006e"/><circle cx="18" cy="106" r="6" style="animation-delay: 391ms " fill="#3a86ff"/><circle cx="43" cy="106" r="6" style="animation-delay: 493ms " fill="#3a86ff"/><circle cx="31" cy="118" r="6" style="animation-delay: 76ms " fill="#ff006e"/><circle cx="6" cy="131" r="6" style="animation-delay: 1186ms " fill="#ff006e"/><circle cx="18" cy="131" r="6" style="animation-delay: 459ms " fill="#3a86ff"/><circle cx="6" cy="143" r="6" style="animation-delay: 549ms " fill="#3a86ff"/><circle cx="18" cy="143" r="6" style="animation-delay: 1397ms " fill="#3a86ff"/><circle cx="56" cy="106" r="6" style="animation-delay: 269ms " fill="#3a86ff"/><circle cx="56" cy="118" r="6" style="animation-delay: 1176ms " fill="#ff006e"/><circle cx="87" cy="112" r="12" style="animation-delay: 1090ms " fill="#ff006e"/><circle cx="56" cy="131" r="6" style="animation-delay: 1085ms " fill="#3a86ff"/><circle cx="68" cy="143" r="6" style="animation-delay: 550ms " fill="#ff006e"/><circle cx="81" cy="131" r="6" style="animation-delay: 147ms " fill="#3a86ff"/><circle cx="6" cy="156" r="6" style="animation-delay: 667ms " fill="#3a86ff"/><circle cx="18" cy="168" r="6" style="animation-delay: 995ms " fill="#3a86ff"/><circle cx="43" cy="156" r="6" style="animation-delay: 1076ms " fill="#ff006e"/><circle cx="31" cy="168" r="6" style="animation-delay: 878ms " fill="#ff006e"/><circle cx="43" cy="168" r="6" style="animation-delay: 495ms " fill="#3a86ff"/><circle cx="18" cy="181" r="6" style="animation-delay: 467ms " fill="#3a86ff"/><circle cx="31" cy="181" r="6" style="animation-delay: 63ms " fill="#3a86ff"/><circle cx="31" cy="193" r="6" style="animation-delay: 965ms " fill="#3a86ff"/><circle cx="43" cy="193" r="6" style="animation-delay: 161ms " fill="#3a86ff"/><circle cx="56" cy="156" r="6" style="animation-delay: 1153ms " fill="#3a86ff"/><circle cx="68" cy="156" r="6" style="animation-delay: 254ms " fill="#ff006e"/><circle cx="68" cy="168" r="6" style="animation-delay: 864ms " fill="#ff006e"/><circle cx="87" cy="162" r="12" style="animation-delay: 1077ms " fill="#3a86ff"/><circle cx="56" cy="181" r="6" style="animation-delay: 54ms " fill="#ff006e"/><circle cx="81" cy="181" r="6" style="animation-delay: 972ms " fill="#ff006e"/><circle cx="93" cy="181" r="6" style="animation-delay: 285ms " fill="#3a86ff"/><circle cx="81" cy="193" r="6" style="animation-delay: 150ms " fill="#ff006e"/><circle cx="93" cy="193" r="6" style="animation-delay: 995ms " fill="#3a86ff"/><circle cx="106" cy="106" r="6" style="animation-delay: 857ms " fill="#3a86ff"/><circle cx="106" cy="118" r="6" style="animation-delay: 243ms " fill="#3a86ff"/><circle cx="131" cy="118" r="6" style="animation-delay: 742ms " fill="#ff006e"/><circle cx="143" cy="118" r="6" style="animation-delay: 947ms " fill="#3a86ff"/><circle cx="112" cy="137" r="12" style="animation-delay: 877ms " fill="#3a86ff"/><circle cx="143" cy="131" r="6" style="animation-delay: 571ms " fill="#3a86ff"/><circle cx="131" cy="143" r="6" style="animation-delay: 1045ms " fill="#3a86ff"/><circle cx="168" cy="106" r="6" style="animation-delay: 861ms " fill="#3a86ff"/><circle cx="156" cy="118" r="6" style="animation-delay: 661ms " fill="#3a86ff"/><circle cx="168" cy="118" r="6" style="animation-delay: 547ms " fill="#3a86ff"/><circle cx="187" cy="112" r="12" style="animation-delay: 786ms " fill="#ff006e"/><circle cx="162" cy="137" r="12" style="animation-delay: 778ms " fill="#ff006e"/><circle cx="181" cy="131" r="6" style="animation-delay: 594ms " fill="#ff006e"/><circle cx="193" cy="131" r="6" style="animation-delay: 555ms " fill="#3a86ff"/><circle cx="181" cy="143" r="6" style="animation-delay: 882ms " fill="#ff006e"/><circle cx="193" cy="143" r="6" style="animation-delay: 1270ms " fill="#ff006e"/><circle cx="106" cy="156" r="6" style="animation-delay: 971ms " fill="#3a86ff"/><circle cx="118" cy="156" r="6" style="animation-delay: 1179ms " fill="#3a86ff"/><circle cx="118" cy="168" r="6" style="animation-delay: 1083ms " fill="#3a86ff"/><circle cx="143" cy="156" r="6" style="animation-delay: 1355ms " fill="#3a86ff"/><circle cx="131" cy="168" r="6" style="animation-delay: 1253ms " fill="#3a86ff"/><circle cx="106" cy="181" r="6" style="animation-delay: 1356ms " fill="#ff006e"/><circle cx="118" cy="181" r="6" style="animation-delay: 877ms " fill="#3a86ff"/><circle cx="106" cy="193" r="6" style="animation-delay: 352ms " fill="#ff006e"/><circle cx="118" cy="193" r="6" style="animation-delay: 79ms " fill="#3a86ff"/><circle cx="143" cy="181" r="6" style="animation-delay: 681ms " fill="#3a86ff"/><circle cx="131" cy="193" r="6" style="animation-delay: 872ms " fill="#ff006e"/><circle cx="143" cy="193" r="6" style="animation-delay: 751ms " fill="#3a86ff"/><circle cx="175" cy="175" r="25" style="animation-delay: 1468ms " fill="#ff006e"/></svg>